<svg xmlns="http://www.w3.org/2000/svg" viewBox="0 0 932.55 222.69">
<!-- Full Roast Ahead, logo A ("Roestetikett") from the design board. The lettering is
     the font Alfa Slab One by JM Sole (SIL Open Font License 1.1), converted to outlines,
     so the game ships no font file. -->
<rect width="932.55" height="222.69" rx="24.96" fill="#2a1e17"/>
<rect x="10.56" y="10.56" width="911.43" height="201.57" rx="14.4" fill="none" stroke="#f2c14e" stroke-width="3.84"/>
<g transform="translate(34.55 37.42) scale(3)"><circle cx="24" cy="24" r="23" fill="#f2c14e"/><circle cx="24" cy="24" r="19.5" fill="none" stroke="#2a1e17" stroke-width="1.6"/><g transform="rotate(-28 24 24)"><ellipse cx="24" cy="24" rx="9.5" ry="13.5" fill="#2a1e17"/><path d="M24 11.5Q19 24 24 36.5" stroke="#f2c14e" stroke-width="2.6" fill="none" stroke-linecap="round"/></g></g>
<path fill="#f8eddf" d="M209.26 109.8V94.05H214.06V50.85H209.26V35.11H266.67V59.97H249.68V50.85H240.94V66.79H255.44V77.73H240.94V94.05H253.52V109.8ZM276.59 83.01V50.85H271.79V35.11H307.31V50.85H303.47V87.91Q303.47 91.08 304.86 92.56Q306.25 94.05 309.03 94.05Q311.82 94.05 313.21 92.56Q314.6 91.08 314.6 87.91V50.85H310.76V35.11H343.69V50.85H338.89V83.01Q338.89 97.89 330.92 104.52Q322.95 111.14 308.07 111.14Q293 111.14 284.79 104.52Q276.59 97.89 276.59 83.01ZM349.09 109.8V94.05H353.89V50.85H349.09V35.11H389.6V50.85H380.77V94.05H389.41V85.22H408.52V109.8ZM414.01 109.8V94.05H418.81V50.85H414.01V35.11H454.53V50.85H445.69V94.05H454.33V85.22H473.44V109.8ZM509.86 94.05H514.66V50.85H509.86V35.11H553.92Q566.31 35.11 572.83 40.2Q579.36 45.28 579.36 56.71Q579.36 63.14 576.77 67.84Q574.18 72.55 569.38 74.37L569.47 75.33Q578.69 76.77 578.69 86.66V94.05H583.2V109.8H552.77V87.24Q552.77 83.49 551.67 81.57Q550.56 79.65 548.21 78.98Q545.86 78.31 541.54 78.31V94.05H547.87V109.8H509.86ZM546.72 66.6Q549.51 66.6 550.9 65.11Q552.29 63.62 552.29 60.45V57Q552.29 53.83 550.9 52.34Q549.51 50.85 546.72 50.85H541.54V66.6ZM588.2 72.45Q588.2 52.2 597.76 42.98Q607.31 33.76 624.88 33.76Q642.44 33.76 652 42.98Q661.55 52.2 661.55 72.45Q661.55 92.71 652 101.92Q642.44 111.14 624.88 111.14Q607.31 111.14 597.76 101.92Q588.2 92.71 588.2 72.45ZM631.4 86.95V57.96Q631.4 54.31 629.77 52.58Q628.14 50.85 624.88 50.85Q621.61 50.85 619.98 52.58Q618.35 54.31 618.35 57.96V86.95Q618.35 90.69 619.98 92.37Q621.61 94.05 624.88 94.05Q628.14 94.05 629.77 92.32Q631.4 90.6 631.4 86.95ZM734.17 94.05H738.01V109.8H700.37V94.05H706.13L704.6 86.37H691.54L690.01 94.05H695.77V109.8H662.93V94.05H666.77L683 35.11H717.94ZM693.65 76.2H702.49L698.55 57.09H697.59ZM742.34 105.96V86.95H763.46Q763.46 89.92 764.8 91.27Q766.14 92.61 769.7 92.61Q772.67 92.61 773.97 91.7Q775.26 90.79 775.26 88.96Q775.26 87.43 774.02 86.32Q772.77 85.22 769.7 84.07L761.44 81.19Q750.78 77.16 746.13 71.68Q741.47 66.21 741.47 56.9Q741.47 45.57 748.91 39.67Q756.35 33.76 773.73 33.76Q782.08 33.76 789.42 35.44Q796.77 37.12 801.28 39.91V57.09H782.08Q782.08 52.29 776.13 52.29Q773.25 52.29 772.05 53.01Q770.85 53.73 770.85 55.56Q770.85 57.19 772.24 58.15Q773.63 59.11 776.8 60.16L785.15 63.04Q795.33 66.5 799.98 72.02Q804.64 77.54 804.64 86.47Q804.64 98.66 796.43 104.9Q788.22 111.14 772.38 111.14Q763.17 111.14 754.96 109.56Q746.75 107.97 742.34 105.96ZM881.15 58.34H864.63V50.85H858.49V94.05H865.21V109.8H824.89V94.05H831.61V50.85H825.47V58.34H808.95V35.11H881.15Z"/>
<path fill="#f2c14e" d="M250.77 172.02H253.08V181.47H230.5V172.02H233.95L233.03 167.41H225.2L224.28 172.02H227.73V181.47H208.03V172.02H210.34L220.07 136.66H241.04ZM226.47 161.31H231.77L229.4 149.85H228.83ZM314.39 146.1H311.51V172.02H314.39V181.47H292.62V172.02H295.38V162.52H287.32V172.02H290.08V181.47H268.31V172.02H271.19V146.1H268.31V136.66H290.08V146.1H287.32V154.86H295.38V146.1H292.62V136.66H314.39ZM330.14 181.47V172.02H333.02V146.1H330.14V136.66H369.02V154.05H356.11V146.1H349.14V155.2H354.21V161.77H349.14V172.02H356.11V162.92H369.02V181.47ZM427.24 172.02H429.55V181.47H406.97V172.02H410.42L409.5 167.41H401.67L400.75 172.02H404.2V181.47H384.5V172.02H386.81L396.54 136.66H417.51ZM402.94 161.31H408.23L405.87 149.85H405.3ZM444.78 172.02H447.66V146.16H444.78V136.66H468.16Q477.78 136.66 483.46 141.93Q489.13 147.2 489.13 159.06Q489.13 170.93 483.46 176.2Q477.78 181.47 468.16 181.47H444.78ZM467.13 172.02Q469.08 172.02 470.06 170.99Q471.04 169.95 471.04 167.76V150.36Q471.04 146.1 467.13 146.1H463.79V172.02Z"/>
<g transform="translate(520.73 135.91) scale(2.11)" fill="none" stroke="#f2c14e" stroke-width="4.5" stroke-linecap="round" stroke-linejoin="round"><path d="M4 4L14 12L4 20"/><path d="M22 4L32 12L22 20"/><path d="M40 4L50 12L40 20"/></g>
</svg>
